<svg viewBox="0 0 1200 800" xmlns="http://www.w3.org/2000/svg" role="img" aria-labelledby="title desc">
  <title id="title">Earthquake Detection project cover</title>
  <desc id="desc">Machine learning dashboard with seismic graph and signal panels.</desc>
  <defs>
    <linearGradient id="bg" x1="0" y1="0" x2="1" y2="1">
      <stop offset="0%" stop-color="#111827"/>
      <stop offset="55%" stop-color="#0f766e"/>
      <stop offset="100%" stop-color="#22d3ee"/>
    </linearGradient>
  </defs>
  <rect width="1200" height="800" rx="44" fill="url(#bg)"/>
  <rect x="84" y="92" width="1032" height="616" rx="36" fill="rgba(2,6,23,0.32)" stroke="rgba(255,255,255,0.2)"/>
  <rect x="130" y="136" width="940" height="70" rx="24" fill="rgba(255,255,255,0.1)"/>
  <rect x="170" y="158" width="240" height="24" rx="12" fill="rgba(255,255,255,0.9)"/>
  <rect x="904" y="152" width="120" height="34" rx="17" fill="rgba(167,243,208,0.48)"/>
  <rect x="130" y="246" width="620" height="310" rx="28" fill="rgba(255,255,255,0.08)" stroke="rgba(255,255,255,0.16)"/>
  <path d="M162 430H236L278 342L340 480L388 382L434 430H508L560 316L624 476L680 430H718"
        fill="none" stroke="#ccfbf1" stroke-width="10" stroke-linecap="round" stroke-linejoin="round"/>
  <g fill="rgba(255,255,255,0.12)" stroke="rgba(255,255,255,0.18)">
    <rect x="786" y="246" width="284" height="144" rx="24"/>
    <rect x="786" y="414" width="284" height="142" rx="24"/>
  </g>
  <g fill="rgba(204,251,241,0.82)">
    <rect x="820" y="284" width="162" height="20" rx="10"/>
    <rect x="820" y="324" width="126" height="18" rx="9"/>
    <rect x="820" y="452" width="162" height="20" rx="10"/>
    <rect x="820" y="492" width="126" height="18" rx="9"/>
  </g>
  <circle cx="948" cy="625" r="74" fill="rgba(45,212,191,0.14)"/>
  <text x="130" y="664" fill="#f0fdfa" font-family="Poppins, Arial, sans-serif" font-size="62" font-weight="700">Earthquake Detection</text>
  <text x="130" y="716" fill="#d1fae5" font-family="Poppins, Arial, sans-serif" font-size="28">Machine learning  |  Flask • scikit-learn • Data workflow</text>
</svg>
