<svg viewBox="0 0 1200 800" xmlns="http://www.w3.org/2000/svg" role="img" aria-labelledby="title desc">
  <title id="title">Quiz Game project cover</title>
  <desc id="desc">Abstract interface with quiz cards and score chips.</desc>
  <defs>
    <linearGradient id="bg" x1="0" y1="0" x2="1" y2="1">
      <stop offset="0%" stop-color="#1d4ed8"/>
      <stop offset="55%" stop-color="#4338ca"/>
      <stop offset="100%" stop-color="#22d3ee"/>
    </linearGradient>
    <linearGradient id="panel" x1="0" y1="0" x2="1" y2="1">
      <stop offset="0%" stop-color="rgba(255,255,255,0.22)"/>
      <stop offset="100%" stop-color="rgba(255,255,255,0.06)"/>
    </linearGradient>
  </defs>
  <rect width="1200" height="800" rx="44" fill="url(#bg)"/>
  <g opacity="0.16" stroke="#fff">
    <path d="M0 170H1200"/>
    <path d="M0 320H1200"/>
    <path d="M0 470H1200"/>
    <path d="M0 620H1200"/>
    <path d="M170 0V800"/>
    <path d="M350 0V800"/>
    <path d="M530 0V800"/>
    <path d="M710 0V800"/>
    <path d="M890 0V800"/>
  </g>
  <rect x="90" y="100" width="1020" height="600" rx="38" fill="rgba(8,15,35,0.28)" stroke="rgba(255,255,255,0.22)"/>
  <rect x="140" y="150" width="300" height="28" rx="14" fill="rgba(255,255,255,0.88)"/>
  <rect x="140" y="210" width="900" height="240" rx="28" fill="rgba(255,255,255,0.12)" stroke="rgba(255,255,255,0.2)"/>
  <rect x="180" y="260" width="640" height="34" rx="17" fill="rgba(255,255,255,0.9)"/>
  <rect x="180" y="320" width="520" height="24" rx="12" fill="rgba(224,231,255,0.72)"/>
  <rect x="180" y="380" width="180" height="44" rx="22" fill="rgba(191,219,254,0.55)"/>
  <g fill="rgba(255,255,255,0.18)" stroke="rgba(255,255,255,0.22)">
    <rect x="140" y="500" width="205" height="120" rx="24"/>
    <rect x="370" y="500" width="205" height="120" rx="24"/>
    <rect x="600" y="500" width="205" height="120" rx="24"/>
    <rect x="830" y="500" width="205" height="120" rx="24"/>
  </g>
  <circle cx="945" cy="190" r="64" fill="rgba(255,255,255,0.18)"/>
  <text x="915" y="205" fill="#ffffff" font-family="Poppins, Arial, sans-serif" font-size="48" font-weight="700">92</text>
  <text x="140" y="665" fill="#eff6ff" font-family="Poppins, Arial, sans-serif" font-size="68" font-weight="700">Quiz Game</text>
  <text x="140" y="716" fill="#dbeafe" font-family="Poppins, Arial, sans-serif" font-size="28">Interactive UI  |  HTML • CSS • JavaScript</text>
</svg>
