<svg viewBox="0 0 1200 800" xmlns="http://www.w3.org/2000/svg" role="img" aria-labelledby="title desc">
  <title id="title">Tic Tac Toe project cover</title>
  <desc id="desc">Game interface with glowing tic tac toe board.</desc>
  <defs>
    <linearGradient id="bg" x1="0" y1="0" x2="1" y2="1">
      <stop offset="0%" stop-color="#1e1b4b"/>
      <stop offset="48%" stop-color="#1d4ed8"/>
      <stop offset="100%" stop-color="#22d3ee"/>
    </linearGradient>
  </defs>
  <rect width="1200" height="800" rx="44" fill="url(#bg)"/>
  <circle cx="1030" cy="130" r="120" fill="rgba(255,255,255,0.08)"/>
  <circle cx="150" cy="690" r="150" fill="rgba(255,255,255,0.08)"/>
  <rect x="110" y="100" width="980" height="600" rx="42" fill="rgba(2,6,23,0.3)" stroke="rgba(255,255,255,0.2)"/>
  <rect x="150" y="140" width="900" height="58" rx="22" fill="rgba(255,255,255,0.1)"/>
  <rect x="188" y="158" width="220" height="22" rx="11" fill="rgba(255,255,255,0.9)"/>
  <g stroke="#e0f2fe" stroke-width="14" stroke-linecap="round">
    <path d="M450 250V570"/>
    <path d="M620 250V570"/>
    <path d="M280 360H790"/>
    <path d="M280 520H790"/>
  </g>
  <g stroke="#bfdbfe" stroke-width="14" stroke-linecap="round">
    <path d="M316 270L408 362"/>
    <path d="M408 270L316 362"/>
    <circle cx="535" cy="315" r="56" fill="none"/>
    <path d="M660 440L752 532"/>
    <path d="M752 440L660 532"/>
    <circle cx="365" cy="480" r="56" fill="none"/>
  </g>
  <rect x="850" y="264" width="158" height="88" rx="24" fill="rgba(255,255,255,0.14)"/>
  <rect x="850" y="382" width="158" height="88" rx="24" fill="rgba(255,255,255,0.14)"/>
  <rect x="850" y="500" width="158" height="88" rx="24" fill="rgba(255,255,255,0.14)"/>
  <text x="150" y="668" fill="#eff6ff" font-family="Poppins, Arial, sans-serif" font-size="68" font-weight="700">Tic-Tac-Toe</text>
  <text x="150" y="718" fill="#dbeafe" font-family="Poppins, Arial, sans-serif" font-size="28">Classic game  |  DOM logic • Reset flow • Responsive UI</text>
</svg>
